<svg xmlns="http://www.w3.org/2000/svg" viewBox="380 0 640 380" fill="none">
  <path fill-rule="evenodd" clip-rule="evenodd" d="M789.224 9.04336C810.553 7.65139 819.242 9.58327 838.688 12.3441C878.498 17.1435 912.059 28.7951 943.223 54.0053C993.661 94.8087 997.619 139.498 1003.24 199.457C1008.28 253.185 988.013 286.098 951.359 324.253C934.968 341.314 920.891 345.981 899.096 352.546C884.069 357.22 868.637 360.478 853 362.279C845.46 362.645 835.316 363.797 827.857 363.668C812.258 363.401 788.889 361.684 773.919 357.953C761.85 354.944 743.565 347.104 732.159 341.984C721.401 337.154 708.592 330.101 699.251 322.867C695.015 319.587 685.025 306.878 681.725 302.249C657.719 268.454 642.885 229.01 638.671 187.768C636.803 168.431 638.471 154.873 644.151 136.599C645.658 131.753 646.327 125.331 647.777 120.044C654.166 96.7604 666.87 75.1515 681.322 55.9906C685.88 50.0266 694.068 41.5134 699.236 35.6469C702.848 32.1843 711.003 30.2999 714.802 27.8109C732.086 16.4947 747.955 11.9272 768.491 11.2484C774.307 11.0563 782.827 9.65001 789.224 9.04336ZM904.466 192.066C895.595 192.388 890.053 193.481 881.576 194.333C859.488 196.478 835.6 202.369 819.506 218.631C814.89 223.292 810.654 232.259 811 238.917C811.543 249.354 819.943 254.346 828.184 258.581C846.828 268.166 868.907 267.363 889.323 267.476C902.703 267.914 910.623 267.625 923.883 265.499C937.566 263.306 943.675 260.114 954.967 251.872C966.729 243.288 993.786 227.35 976.64 211.033C958.981 194.231 927.533 192.624 904.466 192.066Z" fill="#F1E8E8"/>
  <path fill-rule="evenodd" clip-rule="evenodd" d="M583.566 0.438706C616.815 -1.74286 640.906 4.10654 669.962 20.3498C678.478 25.1111 688.079 30.5723 695.682 36.6506C691.235 41.3664 685.409 46.9371 680.706 51.55C668.835 63.1895 657.206 74.3954 649.172 89.2141C647.017 93.189 644.363 96.9724 642.911 101.345C640.28 109.767 638.106 121.076 636.658 129.835C634.068 145.504 632.458 163.624 631.455 179.431C630.652 197.769 636.853 215.865 641.929 233.173C647.43 251.93 651.083 272.383 663.194 288.254C668.915 295.753 675.891 302.921 682.667 309.48C686.495 313.188 690.808 315.89 694.587 319.949C687.402 325.155 677.693 332.85 670.091 336.905C638.762 353.613 600.161 366.492 564.513 366.148C553.166 365.49 541.479 364.566 530.598 361.079C517.831 356.988 501.834 346.825 489.985 339.965C476.834 332.352 463.439 325.659 451.735 315.736C438.93 304.88 404.377 259.313 398.042 244.34C394.293 235.478 391.343 218.963 390.551 209.324C389.914 201.583 390.177 193.865 390.147 186.113C390.12 179.509 389.646 172.564 390.557 166.012C391.633 158.268 395.249 150.822 397.796 143.487C401.688 132.277 403.792 121.392 410.262 111.163C414.017 105.228 418.555 100.493 423.029 95.1535C427.812 89.4431 432.399 83.5676 437.223 77.8899C449.132 63.8713 463.945 52.4908 478.946 41.9993C514.801 16.9214 538.958 4.06174 583.566 0.438706ZM531.582 203.622C525.722 203.102 519.655 203.116 513.79 203.539C513.69 203.547 513.59 203.562 513.49 203.573C495.666 204.645 414.827 212.951 450.198 252.957C452.22 255.243 458.139 257.409 460.816 258.919C482.544 269.306 519.844 276.158 544.033 275.919C566.869 275.618 593.162 268.556 609.574 251.68C613.165 247.987 615.205 243.747 615.091 238.533C614.959 232.517 612.131 225.663 607.666 221.572C598.749 213.398 545.809 204.886 531.582 203.622Z" fill="#F1E8E8"/>
</svg>