<svg width="154" height="150" viewBox="0 0 154 150" fill="none" xmlns="http://www.w3.org/2000/svg">
<path d="M63.6084 0.194824C72.5762 -0.390435 76.23 0.421694 84.4062 1.58252C101.144 3.60046 115.255 8.50027 128.358 19.1001C149.565 36.2561 151.229 55.0453 153.592 80.2554C155.71 102.845 147.191 116.685 131.779 132.727C124.887 139.9 118.968 141.862 109.805 144.623C103.486 146.588 96.9986 147.958 90.4238 148.715C87.2536 148.869 82.9885 149.353 79.8525 149.299C73.2938 149.187 63.4671 148.465 57.1729 146.896C52.0983 145.631 44.4111 142.335 39.6152 140.182C35.0919 138.151 29.7059 135.186 25.7783 132.144C23.9972 130.765 19.7974 125.421 18.4102 123.475C8.31644 109.266 2.07943 92.6814 0.307617 75.3413C-0.477699 67.2111 0.223277 61.5099 2.61133 53.8267C3.24479 51.7892 3.52688 49.0884 4.13672 46.8657C6.82306 37.076 12.1639 27.9903 18.2402 19.9341C20.1566 17.4265 23.5997 13.847 25.7725 11.3804C27.291 9.92453 30.72 9.13291 32.3174 8.08643C39.5849 3.32842 46.257 1.40792 54.8916 1.12256C57.3369 1.04175 60.9188 0.449902 63.6084 0.194824ZM112.062 77.1479C108.333 77.2835 106.003 77.7428 102.438 78.1011C93.1516 79.0026 83.1076 81.4801 76.3408 88.3179C74.4002 90.2776 72.6193 94.0477 72.7646 96.8472C72.9929 101.235 76.5242 103.334 79.9893 105.115C87.8282 109.145 97.1112 108.808 105.695 108.855C111.321 109.039 114.651 108.918 120.227 108.024C125.98 107.102 128.548 105.76 133.296 102.294C138.241 98.6849 149.618 91.9833 142.409 85.1226C134.984 78.0583 121.761 77.3828 112.062 77.1479Z" fill="black"/>
<path d="M135.062 87.1825C136.462 87.2787 139.588 87.2017 140.444 88.0376C140.47 88.3626 140.476 88.509 140.399 88.8301C138.944 94.8939 129.332 92.8974 125.257 91.8394C123.841 91.3395 123.276 90.9282 122.167 89.9386C124.279 88.4239 125.333 88.0002 127.789 87.4978C128.584 88.9559 129.699 90.9597 131.512 91.2672C132.147 91.3793 132.799 91.2279 133.32 90.8478C134.434 90.0315 134.844 88.4611 135.062 87.1825Z" fill="black"/>
<path d="M95.8819 90.1232C96.9441 90.5407 97.9154 90.9769 98.9533 91.4452C97.5559 93.3468 96.5604 94.0997 94.6481 95.3415C92.4228 96.4504 82.3585 96.491 80.9974 94.6973C80.7692 92.1912 86.8838 90.5508 88.8769 90.2824C89.3534 90.9056 89.8502 96.4722 93.6869 94.1681C95.2357 93.2369 95.5487 91.7879 95.8819 90.1232Z" fill="black"/>
<path d="M115.346 88.4575C115.447 88.5051 115.643 88.5754 115.665 88.7039C116.445 93.2674 120.406 103.976 116.539 107.459C115.786 105.909 115.255 104.017 114.94 102.319C114.219 98.4475 111.408 91.2236 115.346 88.4575Z" fill="black"/>
</svg>
