<svg width="381" height="227" viewBox="0 0 381 227" fill="none" xmlns="http://www.w3.org/2000/svg">
<path fill-rule="evenodd" clip-rule="evenodd" d="M247.501 5.60553C260.724 4.74257 266.111 5.94079 278.166 7.6524C302.847 10.6278 323.653 17.8512 342.974 33.4805C374.243 58.7769 376.697 86.4821 380.181 123.654C383.304 156.963 370.742 177.368 348.018 201.023C337.856 211.599 329.129 214.493 315.617 218.563C306.301 221.46 296.734 223.481 287.039 224.597C282.365 224.824 276.076 225.538 271.452 225.458C261.782 225.292 247.293 224.228 238.012 221.914C230.53 220.049 219.195 215.189 212.123 212.015C205.454 209.02 197.512 204.647 191.721 200.162C189.095 198.128 182.902 190.25 180.857 187.381C165.974 166.429 156.777 141.975 154.164 116.407C153.006 104.42 154.041 96.0135 157.562 84.6846C158.496 81.6805 158.911 77.699 159.81 74.4219C163.771 59.9869 171.647 46.5899 180.607 34.711C183.432 31.0136 188.509 25.7356 191.712 22.0987C193.951 19.952 199.007 18.7843 201.363 17.2413C212.079 10.2257 221.916 7.39347 234.648 6.97272C238.253 6.85359 243.535 5.98162 247.501 5.60553ZM318.946 119.072C313.446 119.272 310.01 119.949 304.755 120.478C291.062 121.807 276.252 125.459 266.275 135.541C263.413 138.431 260.787 143.99 261.001 148.118C261.338 154.588 266.545 157.683 271.655 160.309C283.213 166.251 296.901 165.753 309.558 165.823C317.853 166.095 322.763 165.916 330.984 164.598C339.467 163.238 343.254 161.259 350.254 156.149C357.546 150.827 374.321 140.947 363.692 130.831C352.744 120.415 333.246 119.419 318.946 119.072Z" fill="white"/>
<path d="M352.859 133.868C354.922 134.009 359.531 133.896 360.794 135.128C360.833 135.608 360.841 135.823 360.728 136.297C358.582 145.238 344.409 142.294 338.4 140.734C336.313 139.997 335.479 139.391 333.845 137.931C336.959 135.698 338.513 135.073 342.134 134.332C343.307 136.482 344.951 139.437 347.624 139.891C348.559 140.056 349.521 139.832 350.289 139.272C351.933 138.068 352.537 135.753 352.859 133.868Z" fill="white"/>
<path d="M295.088 138.204C296.654 138.819 298.086 139.462 299.617 140.153C297.556 142.957 296.088 144.067 293.269 145.898C289.988 147.533 275.148 147.593 273.141 144.948C272.805 141.253 281.82 138.834 284.759 138.438C285.462 139.357 286.194 147.565 291.851 144.168C294.135 142.795 294.597 140.658 295.088 138.204Z" fill="white"/>
<path d="M323.787 135.748C323.936 135.818 324.225 135.921 324.258 136.111C325.407 142.84 331.249 158.629 325.547 163.765C324.437 161.479 323.654 158.69 323.189 156.186C322.126 150.478 317.981 139.826 323.787 135.748Z" fill="white"/>
<path fill-rule="evenodd" clip-rule="evenodd" d="M120.002 0.272004C140.615 -1.0805 155.551 2.54554 173.564 12.6158C178.844 15.5676 184.796 18.9529 189.51 22.7212C186.752 25.6448 183.141 29.0987 180.225 31.9585C172.866 39.1745 165.656 46.1213 160.676 55.3081C159.34 57.7725 157.694 60.1187 156.794 62.8296C155.162 68.0508 153.814 75.0616 152.917 80.4917C151.311 90.2055 150.313 101.439 149.691 111.239C149.193 122.608 153.038 133.827 156.184 144.557C159.595 156.186 161.86 168.865 169.368 178.705C172.915 183.353 177.239 187.797 181.44 191.863C183.813 194.162 186.488 195.837 188.831 198.354C184.377 201.581 178.356 206.352 173.643 208.866C154.221 219.224 130.29 227.209 108.19 226.996C101.156 226.588 93.9096 226.015 87.1639 223.853C79.249 221.317 69.3323 215.016 61.9861 210.763C53.8332 206.043 45.5287 201.894 38.2723 195.742C30.334 189.012 8.91358 160.762 4.98614 151.48C2.66163 145.986 0.832891 135.747 0.341607 129.771C-0.0531555 124.972 0.109382 120.188 0.0906309 115.381C0.0742548 111.288 -0.219015 106.982 0.345514 102.919C1.01248 98.1187 3.25387 93.5022 4.83282 88.9546C7.24545 82.0051 8.55009 75.257 12.5613 68.9156C14.8891 65.2358 17.7032 62.301 20.4764 58.9908C23.4422 55.4505 26.2856 51.8076 29.2762 48.2876C36.6594 39.5968 45.8426 32.5419 55.1424 26.0376C77.3715 10.4905 92.3472 2.51815 120.002 0.272004ZM87.7742 126.237C84.1411 125.914 80.38 125.922 76.7439 126.185C76.6818 126.19 76.6203 126.2 76.5584 126.207C65.5081 126.871 15.3916 132.019 37.3201 156.822C38.5734 158.239 42.2428 159.582 43.9022 160.518C57.3728 166.958 80.4973 171.205 95.4939 171.057C109.651 170.87 125.951 166.492 136.126 156.03C138.352 153.741 139.617 151.113 139.547 147.88C139.465 144.15 137.711 139.902 134.943 137.365C129.415 132.298 96.5939 127.02 87.7742 126.237Z" fill="white"/>
<path d="M58.4794 139.712C62.438 140.383 64.2828 140.833 67.5625 143.139C61.8713 148.61 51.6985 150.08 44.3191 147.97C42.3942 147.091 39.7806 145.462 40.5851 142.919C41.7811 141.42 45.737 141.288 48.0261 140.882C49.0283 142.929 50.0957 145.281 52.2818 146.168C53.1655 146.524 54.1624 146.464 54.9972 146.004C57.1907 144.818 57.8916 141.911 58.4794 139.712Z" fill="white"/>
<path d="M116.374 137.969C119.454 138.06 127.727 139.265 128.506 142.635C128.351 143.172 128.249 143.764 127.658 144.036C123.855 145.789 113.354 147.46 109.603 146.674C106.196 145.291 104.625 144.372 102.226 141.614C103.23 140.542 104.546 139.028 106.077 139.007C106.413 139.945 107.092 142.27 107.705 142.899C109.786 145.031 112.52 145.25 114.661 143.01C116.386 141.203 116.334 140.372 116.374 137.969Z" fill="white"/>
<path d="M76.5107 139.76C76.896 139.752 78.5699 139.709 78.7816 139.825C80.887 140.981 81.0106 146.38 81.0409 148.483C81.1285 154.569 79.4772 160.633 77.928 166.446C77.8854 166.561 77.6177 166.93 77.5367 167.048C72.2291 163.845 76.3329 145.358 76.5107 139.76Z" fill="white"/>
</svg>
