<svg width="381" height="227" viewBox="0 0 381 227" fill="none" xmlns="http://www.w3.org/2000/svg">
<path fill-rule="evenodd" clip-rule="evenodd" d="M247.501 5.60601C260.724 4.74306 266.111 5.94129 278.166 7.65289C302.846 10.6283 323.653 17.8518 342.974 33.481C374.243 58.7774 376.697 86.4826 380.181 123.655C383.304 156.964 370.742 177.369 348.018 201.023C337.856 211.6 329.129 214.493 315.617 218.563C306.301 221.461 296.734 223.481 287.039 224.597C282.365 224.824 276.076 225.538 271.452 225.459C261.782 225.293 247.293 224.228 238.012 221.915C230.53 220.05 219.195 215.189 212.123 212.015C205.454 209.021 197.513 204.649 191.722 200.164C189.096 198.13 182.902 190.251 180.857 187.381C165.974 166.43 156.777 141.976 154.164 116.408C153.006 104.42 154.041 96.0146 157.562 84.6861C158.496 81.6819 158.911 77.6997 159.81 74.4224C163.771 59.9874 171.647 46.5904 180.607 34.7115C183.432 31.014 188.509 25.7361 191.713 22.0992C193.952 19.9527 199.007 18.7847 201.363 17.2418C212.078 10.2262 221.916 7.39397 234.648 6.9732C238.253 6.85409 243.535 5.98212 247.501 5.60601ZM318.947 119.073C313.447 119.273 310.01 119.95 304.755 120.478C291.062 121.807 276.252 125.46 266.275 135.542C263.413 138.431 260.787 143.991 261.001 148.119C261.338 154.589 266.546 157.683 271.656 160.309C283.214 166.251 296.901 165.754 309.558 165.824C317.853 166.095 322.764 165.916 330.985 164.598C339.467 163.238 343.254 161.259 350.254 156.15C357.546 150.828 374.321 140.948 363.692 130.832C352.744 120.415 333.247 119.419 318.947 119.073Z" fill="black"/>
<path d="M352.859 133.868C354.922 134.01 359.531 133.896 360.794 135.129C360.833 135.608 360.841 135.824 360.728 136.297C358.582 145.238 344.409 142.295 338.4 140.735C336.313 139.998 335.479 139.391 333.845 137.932C336.959 135.699 338.513 135.074 342.134 134.333C343.307 136.483 344.951 139.437 347.624 139.891C348.559 140.056 349.521 139.833 350.289 139.273C351.933 138.069 352.537 135.753 352.859 133.868Z" fill="black"/>
<path d="M295.089 138.204C296.655 138.82 298.087 139.463 299.618 140.153C297.557 142.957 296.089 144.067 293.27 145.898C289.989 147.534 275.149 147.593 273.142 144.949C272.806 141.253 281.821 138.835 284.76 138.439C285.463 139.358 286.195 147.566 291.852 144.168C294.136 142.795 294.598 140.659 295.089 138.204Z" fill="black"/>
<path d="M323.787 135.748C323.936 135.818 324.225 135.922 324.258 136.111C325.407 142.84 331.249 158.63 325.547 163.766C324.437 161.48 323.654 158.691 323.189 156.187C322.126 150.478 317.981 139.827 323.787 135.748Z" fill="black"/>
<path fill-rule="evenodd" clip-rule="evenodd" d="M120.002 0.272003C140.616 -1.08049 155.551 2.54555 173.565 12.6158C178.844 15.5676 184.797 18.9538 189.51 22.7222C186.753 25.6457 183.141 29.0987 180.226 31.9585C172.866 39.1745 165.656 46.1221 160.676 55.3091C159.34 57.7734 157.694 60.1188 156.794 62.8296C155.163 68.0507 153.815 75.0615 152.917 80.4917C151.311 90.2053 150.313 101.439 149.692 111.239C149.194 122.607 153.038 133.827 156.185 144.557C159.595 156.186 161.86 168.866 169.368 178.706C172.916 183.354 177.24 187.798 181.441 191.864C183.814 194.163 186.488 195.838 188.831 198.355C184.377 201.582 178.357 206.353 173.644 208.867C154.221 219.225 130.291 227.209 108.191 226.996C101.156 226.588 93.9101 226.016 87.1644 223.854C79.2494 221.318 69.3329 215.016 61.9866 210.763C53.8338 206.044 45.5291 201.895 38.2727 195.743C30.3346 189.013 8.91322 160.764 4.98564 151.481C2.66113 145.987 0.832391 135.747 0.341107 129.772C-0.0537032 124.973 0.109866 120.188 0.0911075 115.381C0.0747203 111.288 -0.219413 106.982 0.345014 102.92C1.01195 98.1198 3.25435 93.5032 4.83329 88.9556C7.24589 82.0062 8.54978 75.2579 12.5608 68.9165C14.8886 65.2366 17.7027 62.3011 20.4759 58.9908C23.4417 55.4505 26.2861 51.8076 29.2767 48.2876C36.6598 39.5969 45.8432 32.5418 55.1429 26.0376C77.3718 10.4906 92.3476 2.51812 120.002 0.272003ZM87.7747 126.237C84.1416 125.914 80.3805 125.923 76.7444 126.186C76.6823 126.191 76.6207 126.2 76.5589 126.207C65.5086 126.871 15.3913 132.02 37.3196 156.823C38.5728 158.24 42.2433 159.583 43.9026 160.519C57.3733 166.958 80.4979 171.206 95.4944 171.058C109.651 170.871 125.951 166.493 136.126 156.031C138.352 153.741 139.618 151.113 139.547 147.88C139.466 144.15 137.711 139.901 134.944 137.365C129.415 132.298 96.5946 127.02 87.7747 126.237Z" fill="black"/>
<path d="M58.4794 139.712C62.438 140.384 64.2828 140.833 67.5625 143.14C61.8713 148.611 51.6985 150.08 44.3191 147.97C42.3942 147.091 39.7806 145.463 40.5851 142.919C41.7811 141.421 45.737 141.288 48.0261 140.882C49.0283 142.93 50.0957 145.282 52.2818 146.169C53.1655 146.524 54.1624 146.464 54.9972 146.005C57.1907 144.819 57.8916 141.911 58.4794 139.712Z" fill="black"/>
<path d="M116.374 137.969C119.454 138.06 127.727 139.266 128.506 142.635C128.351 143.173 128.249 143.765 127.658 144.037C123.855 145.789 113.354 147.461 109.603 146.675C106.196 145.292 104.625 144.373 102.226 141.615C103.23 140.542 104.546 139.029 106.077 139.008C106.413 139.946 107.092 142.271 107.705 142.9C109.786 145.031 112.52 145.251 114.661 143.01C116.386 141.204 116.334 140.372 116.374 137.969Z" fill="black"/>
<path d="M76.5117 139.76C76.897 139.753 78.5709 139.709 78.7826 139.825C80.888 140.982 81.0115 146.381 81.0419 148.484C81.1294 154.569 79.4781 160.633 77.929 166.447C77.8864 166.561 77.6187 166.93 77.5377 167.049C72.2301 163.845 76.3339 145.358 76.5117 139.76Z" fill="black"/>
</svg>
