<svg width="154" height="150" viewBox="0 0 154 150" fill="none" xmlns="http://www.w3.org/2000/svg">
<path d="M63.6084 0.195312C72.5762 -0.389947 76.23 0.422183 84.4062 1.58301C101.144 3.60094 115.255 8.49988 128.358 19.0996C149.565 36.2557 151.229 55.0455 153.592 80.2559C155.71 102.846 147.191 116.684 131.779 132.727C124.887 139.9 118.968 141.863 109.805 144.623C103.486 146.588 96.9985 147.958 90.4238 148.715C87.2536 148.869 82.9885 149.354 79.8525 149.3C73.2938 149.187 63.4671 148.465 57.1729 146.896C52.0983 145.631 44.411 142.334 39.6152 140.182C35.0919 138.151 29.7059 135.185 25.7783 132.144C23.9971 130.764 19.7975 125.422 18.4102 123.476C8.31634 109.266 2.07938 92.6811 0.307617 75.3408C-0.477669 67.2108 0.223401 61.5102 2.61133 53.8271C3.24478 51.7897 3.52691 49.0889 4.13672 46.8662C6.823 37.0765 12.164 27.9908 18.2402 19.9346C20.1565 17.427 23.5996 13.8475 25.7725 11.3809C27.291 9.92498 30.7201 9.13246 32.3174 8.08594C39.5849 3.32796 46.257 1.40743 54.8916 1.12207C57.3369 1.04127 60.9188 0.450397 63.6084 0.195312ZM112.062 77.1484C108.333 77.284 106.003 77.7433 102.438 78.1016C93.1517 79.0031 83.1076 81.4798 76.3408 88.3174C74.4003 90.277 72.6194 94.0472 72.7646 96.8467C72.9928 101.235 76.5241 103.334 79.9893 105.115C87.8282 109.145 97.1112 108.807 105.695 108.854C111.321 109.038 114.651 108.917 120.227 108.023C125.98 107.101 128.548 105.759 133.296 102.294C138.241 98.6844 149.618 91.9837 142.409 85.123C134.984 78.0587 121.761 77.3833 112.062 77.1484Z" fill="white"/>
<path d="M135.062 87.1825C136.462 87.2787 139.588 87.2017 140.444 88.0376C140.47 88.3626 140.476 88.509 140.399 88.8301C138.944 94.8939 129.332 92.8974 125.257 91.8394C123.841 91.3395 123.276 90.9282 122.167 89.9386C124.279 88.4239 125.333 88.0002 127.789 87.4978C128.584 88.9559 129.699 90.9597 131.512 91.2672C132.147 91.3793 132.799 91.2279 133.32 90.8478C134.434 90.0315 134.844 88.4611 135.062 87.1825Z" fill="white"/>
<path d="M95.8819 90.1232C96.9441 90.5407 97.9154 90.9769 98.9533 91.4452C97.5559 93.3468 96.5604 94.0997 94.6481 95.3415C92.4228 96.4504 82.3585 96.491 80.9974 94.6973C80.7692 92.1912 86.8838 90.5508 88.8769 90.2824C89.3534 90.9056 89.8502 96.4722 93.6869 94.1681C95.2357 93.2369 95.5487 91.7879 95.8819 90.1232Z" fill="white"/>
<path d="M115.346 88.4575C115.447 88.5051 115.643 88.5754 115.665 88.7039C116.445 93.2674 120.406 103.976 116.539 107.459C115.786 105.909 115.255 104.017 114.94 102.319C114.219 98.4475 111.408 91.2236 115.346 88.4575Z" fill="white"/>
</svg>
