<svg width="159" height="154" viewBox="0 0 159 154" fill="none" xmlns="http://www.w3.org/2000/svg">
<path fill-rule="evenodd" clip-rule="evenodd" d="M81.3856 0.222688C95.3568 -0.818925 105.495 1.76404 117.712 8.59378C121.293 10.5956 124.687 14.03 128.526 15.4483C132.003 16.7327 128.873 14.6668 135.597 20.2198C142.321 25.7734 145.04 31.4969 146.949 35.1465C148.858 38.796 150.027 40.7952 150.978 42.6494C152.787 46.1751 154.226 50.9452 155.205 54.628C156.956 61.2158 158.157 68.8241 158.723 75.4805C159.377 83.1821 157.671 90.4221 154.097 98.0039C150.522 105.586 150.978 107.886 145.477 116.505C139.977 125.124 139.574 125.68 135.597 128.487C131.62 131.295 131.086 132.374 128.065 134.563C125.044 136.751 120.962 139.987 117.765 141.691C104.593 148.717 88.3606 154.307 73.3749 153.987C68.5971 153.885 63.69 153.322 59.1151 151.856C53.7471 150.136 47.0212 145.863 42.0389 142.979C36.5095 139.778 30.8772 136.963 25.9559 132.791C20.5721 128.226 6.04527 109.068 3.38169 102.772C1.80518 99.0463 0.564589 92.1024 0.231302 88.0498C-0.0363735 84.795 0.0742481 81.5498 0.0613802 78.2901C0.0504155 75.5137 -0.148529 72.5938 0.234232 69.8389C0.686623 66.583 2.20641 63.4515 3.2772 60.3672C4.91341 55.6543 5.79815 51.078 8.51841 46.7774C10.0971 44.2817 12.0058 42.291 13.8866 40.0459C15.898 37.6449 17.8272 35.1745 19.8553 32.7871C24.8626 26.8931 31.0903 22.1085 37.3973 17.6973C52.4732 7.15314 62.6204 1.62173 81.3856 0.222688ZM59.5282 85.6524C57.0643 85.4335 54.5136 85.4391 52.0477 85.6172C52.0056 85.6205 51.9636 85.6272 51.9217 85.6319C44.4268 86.0823 10.4387 89.5747 25.3104 106.396C26.1603 107.357 28.6488 108.267 29.7743 108.902C38.9101 113.27 54.5937 116.15 64.7645 116.05C74.3657 115.923 85.4206 112.954 92.3211 105.858C93.8308 104.306 94.6883 102.523 94.6405 100.331C94.5852 97.8012 93.3956 94.9197 91.5184 93.1992C87.7686 89.7629 65.5095 86.1837 59.5282 85.6524Z" fill="black"/>
<path d="M39.6602 94.7913C42.3449 95.2467 43.5961 95.5515 45.8204 97.1158C41.9607 100.826 35.0614 101.823 30.0567 100.392C28.7512 99.7957 26.9786 98.6912 27.5243 96.9661C28.3354 95.9501 31.0183 95.86 32.5708 95.5846C33.2505 96.9734 33.9744 98.5686 35.457 99.17C36.0563 99.4112 36.7324 99.3704 37.2986 99.0588C38.7863 98.2546 39.2616 96.2827 39.6602 94.7913Z" fill="black"/>
<path d="M78.9243 93.609C81.0137 93.671 86.6241 94.4883 87.1523 96.7736C87.0475 97.1383 86.978 97.5396 86.5776 97.7242C83.9985 98.9129 76.8761 100.046 74.3328 99.5133C72.0217 98.5752 70.9563 97.952 69.3291 96.0815C70.01 95.354 70.9028 94.3277 71.9409 94.3134C72.1691 94.9497 72.6293 96.5266 73.0455 96.9529C74.4566 98.3985 76.3109 98.5473 77.7626 97.0278C78.9328 95.8028 78.8973 95.2387 78.9243 93.609Z" fill="black"/>
<path d="M51.8898 94.8237C52.1511 94.8186 53.2864 94.7891 53.4299 94.8679C54.8578 95.6521 54.9416 99.3137 54.9622 100.74C55.0216 104.867 53.9017 108.98 52.851 112.922C52.8221 113 52.6406 113.25 52.5857 113.331C48.986 111.158 51.7692 98.6204 51.8898 94.8237Z" fill="black"/>
</svg>
