<svg width="1395" height="736" viewBox="0 0 1395 736" fill="none" xmlns="http://www.w3.org/2000/svg">
<path d="M1336.81 557.076C1326.26 558.438 1324.55 556.736 1317.4 563.204C1314.68 565.587 1313.32 568.311 1313.32 571.715C1313.32 572.737 1313.32 573.758 1313.66 574.779C1314.68 579.546 1316.38 583.631 1320.81 586.695C1326.6 590.44 1332.38 593.845 1338.51 597.249C1349.07 603.037 1359.62 609.165 1369.15 616.995C1377.32 623.123 1385.15 632.656 1389.92 643.891C1392.98 651.04 1394.69 658.87 1394.69 667.382C1394.69 669.765 1394.69 671.808 1394.35 674.191C1392.3 694.958 1380.73 713.683 1364.05 721.513C1356.9 724.577 1350.77 725.258 1341.92 726.96C1331.02 729.003 1319.45 729.684 1307.19 729.684C1295.62 729.684 1284.04 729.344 1273.49 729.003C1263.95 728.663 1250 728.322 1241.14 725.599C1237.4 724.577 1234.33 723.896 1231.61 721.854C1230.25 720.832 1229.57 719.13 1229.57 717.768C1229.23 716.406 1229.23 715.045 1229.23 713.683C1229.23 707.214 1228.89 700.746 1228.89 694.277V674.872C1228.89 671.808 1228.55 669.084 1228.55 666.02C1228.55 661.254 1228.21 658.19 1228.21 655.806C1228.21 651.721 1229.23 651.381 1235.02 650.359C1236.38 650.019 1240.46 650.019 1241.82 650.019C1252.72 650.019 1263.27 650.359 1274.51 650.359H1282.34C1286.08 650.359 1291.87 649.338 1291.87 649.338C1292.89 648.997 1293.91 648.657 1294.93 647.976C1299.02 645.593 1302.76 642.869 1306.17 639.465C1308.89 636.741 1310.25 633.337 1310.25 629.932C1310.25 623.804 1304.81 618.357 1298.34 613.591C1290.51 608.143 1281.32 604.058 1275.87 602.015C1271.1 600.313 1266 598.951 1261.23 596.568C1253.74 592.823 1246.59 587.717 1241.14 580.908C1237.4 576.482 1233.99 571.375 1232.29 565.928C1230.59 561.161 1229.91 556.736 1228.55 550.948C1228.21 548.905 1228.21 547.203 1228.21 545.501C1228.21 543.118 1228.21 540.734 1228.89 538.011C1229.57 534.947 1230.25 532.904 1230.93 529.84C1231.27 528.819 1231.27 528.478 1231.61 527.457C1240.8 509.073 1252.38 497.157 1270.76 487.965C1272.12 487.284 1273.15 486.943 1274.51 486.263C1289.15 481.156 1307.19 479.794 1325.92 479.794H1344.64C1356.56 479.794 1371.54 480.134 1382.43 481.837C1384.47 482.177 1388.9 482.177 1390.26 484.22C1392.64 486.603 1393.32 488.646 1394.01 492.05C1394.35 494.093 1394.01 496.136 1394.35 498.519V512.818C1394.35 517.584 1394.69 522.691 1394.69 527.457C1394.69 545.841 1394.35 531.883 1394.35 550.267C1394.35 551.288 1394.35 552.65 1394.01 553.672C1393.66 556.055 1391.28 556.395 1388.56 556.395H1381.75C1379.03 556.395 1373.58 556.736 1367.79 556.736H1362.68C1358.94 556.395 1354.51 556.395 1350.09 556.395C1345.32 556.395 1340.9 556.395 1336.81 557.076Z" fill="black"/>
<path d="M1178.3 728.663C1174.89 728.663 1171.83 728.663 1167.74 729.003H1163.32C1156.85 729.003 1152.08 728.322 1145.62 728.322H1142.55C1136.42 728.663 1124.51 729.003 1119.4 729.003C1115.32 729.003 1111.23 728.663 1107.14 727.982C1103.06 727.301 1099.31 726.28 1095.23 725.258C1092.51 724.577 1091.14 722.535 1090.8 719.811C1090.46 718.79 1090.46 718.109 1090.46 717.087C1090.46 710.959 1090.12 704.831 1090.12 699.044V656.487C1090.12 644.912 1090.12 633.337 1089.78 621.762C1089.1 608.144 1089.1 595.206 1089.1 582.61C1089.1 563.545 1089.44 545.16 1089.44 525.074C1089.44 511.796 1089.78 497.157 1089.78 483.539C1090.12 480.815 1091.48 479.454 1094.21 479.454C1103.06 479.454 1114.63 481.156 1122.46 481.156C1134.72 481.496 1147.32 481.496 1159.57 481.496C1174.89 481.496 1191.58 481.156 1206.22 480.475H1209.62C1213.02 480.475 1215.75 480.815 1218.13 483.199C1219.15 483.879 1219.15 487.965 1219.15 489.327V492.731C1219.15 499.54 1219.49 505.328 1219.49 510.775C1219.49 515.541 1219.49 520.308 1218.81 526.436V539.373C1219.15 542.777 1219.15 546.182 1219.15 549.927C1219.15 553.331 1214.73 554.012 1210.98 554.012C1208.6 554.012 1206.22 553.672 1204.17 553.672C1192.94 553.672 1177.28 551.969 1164 551.969H1153.79C1152.42 552.31 1151.4 552.991 1151.06 554.353C1151.06 554.693 1151.06 555.033 1150.72 555.374V562.864C1150.72 565.928 1150.72 567.63 1150.72 568.651C1150.72 570.013 1150.72 571.035 1151.06 572.396C1151.74 572.396 1162.64 571.715 1168.09 571.715H1187.83C1190.9 571.715 1193.96 571.715 1198.04 572.056C1200.43 572.056 1202.13 572.056 1204.51 572.396C1206.22 572.396 1210.64 572.396 1212 573.077C1215.41 574.099 1216.77 581.588 1216.77 585.674V590.781C1216.77 602.356 1216.43 597.249 1216.43 610.186V610.867C1216.43 612.229 1216.43 612.569 1215.41 613.591C1215.07 613.931 1213.02 614.272 1212.34 614.272C1195.66 614.953 1179.32 615.293 1161.62 615.293C1158.55 615.293 1155.83 615.974 1153.11 616.655C1151.06 616.995 1150.38 618.017 1150.38 620.059C1150.04 626.868 1149.7 633.677 1149.7 640.486C1149.7 642.529 1150.38 643.21 1152.42 643.21C1158.55 643.55 1164.68 643.891 1170.81 643.891H1175.23C1187.49 643.891 1197.7 645.593 1209.96 646.614C1211.66 646.955 1213.71 646.614 1215.41 646.955C1218.81 647.636 1219.83 649.678 1219.83 653.083C1219.83 657.509 1220.17 661.935 1220.17 666.36V687.809C1220.51 696.66 1220.85 708.917 1221.2 717.768V721.513C1221.2 725.258 1220.85 725.599 1218.13 726.62C1217.11 726.96 1216.43 727.301 1215.41 727.301C1204.51 728.322 1191.24 728.663 1178.3 728.663Z" fill="black"/>
<path d="M913.344 577.163C913.684 569.673 914.025 561.502 914.365 554.012C916.748 512.818 938.877 490.008 971.901 478.773C975.305 477.751 979.05 476.73 982.455 476.39C986.2 475.709 989.604 475.368 993.349 475.368C1004.58 475.368 1012.41 475.368 1024.67 477.07C1044.08 479.794 1052.93 479.454 1070.29 496.816C1074.72 501.242 1076.76 505.328 1078.12 510.434C1079.48 514.86 1080.5 518.946 1081.53 523.372C1082.21 528.478 1082.55 534.266 1082.55 540.054C1082.55 554.693 1082.21 562.523 1080.5 575.46C1079.82 579.546 1079.48 583.631 1078.8 587.717C1078.12 590.781 1076.76 592.823 1073.7 593.845C1070.97 594.526 1067.91 594.526 1065.18 594.526H1034.88C1033.52 594.526 1030.12 595.206 1026.71 595.206C1020.93 595.206 1014.8 594.185 1014.8 588.738C1014.46 584.652 1014.46 580.908 1014.46 577.163C1014.46 565.247 1015.14 559.119 1015.14 547.543C1015.14 541.415 1014.46 535.968 1012.07 530.861C1011.73 530.181 1011.39 529.5 1010.71 528.819C1008.33 526.095 1003.56 525.074 999.137 525.074C997.435 525.074 995.732 525.414 994.03 526.436C987.221 530.521 984.157 534.606 980.753 541.415C977.689 547.884 976.327 554.693 975.986 561.502C975.305 571.034 974.625 578.524 973.944 589.419V593.504C974.284 599.973 974.625 604.399 974.625 609.846V624.826C974.625 631.975 974.625 639.124 975.305 642.188C976.327 646.955 976.327 652.742 980.072 658.53C983.136 662.956 987.221 665.339 990.966 665.339H991.647C995.392 665.339 999.137 663.637 1002.2 660.573C1004.24 658.53 1004.92 655.806 1005.27 653.083C1005.61 649.678 1006.29 636.06 1006.63 633.337C1006.97 630.613 1007.31 621.761 1008.67 619.378C1009.35 618.017 1011.05 617.676 1012.41 617.676H1013.44C1019.22 618.017 1022.63 618.357 1028.42 618.697C1036.25 619.378 1040.33 620.059 1048.16 620.059H1049.86C1055.99 620.059 1060.08 619.378 1065.87 619.378H1068.59C1071.65 619.378 1073.7 620.4 1076.08 621.081C1078.12 621.761 1079.14 623.464 1079.14 625.847C1079.48 627.209 1079.48 628.57 1079.48 629.932C1079.14 642.188 1079.14 658.53 1078.12 670.786C1076.42 689.171 1070.29 701.767 1062.46 714.023C1059.4 718.449 1055.99 722.535 1050.89 724.918C1046.46 726.62 1042.37 728.663 1037.95 730.024C1036.93 730.365 1036.25 730.705 1035.57 730.705C1027.73 732.067 1019.9 733.429 1012.41 734.45C1006.63 735.131 1001.18 735.812 995.392 735.812C989.604 735.812 983.817 735.131 978.37 734.11C973.603 733.088 968.837 732.408 964.071 731.386C951.814 727.982 941.601 721.513 934.111 710.278C931.387 706.193 928.323 701.427 926.621 696.66C925.259 693.256 924.238 690.192 923.217 686.787C920.834 678.617 918.45 670.105 917.77 661.254C917.089 653.764 916.067 646.274 915.046 638.784C914.705 637.422 914.705 635.72 914.705 634.358C914.025 623.804 913.684 613.25 913.003 602.696V598.611C913.003 591.802 913.344 584.312 913.344 577.163Z" fill="black"/>
<path d="M832.769 512.137C832.769 511.796 832.769 511.115 832.769 510.775C832.769 502.604 833.109 496.476 833.109 489.327C833.109 483.539 833.45 482.518 835.152 481.496C837.876 479.454 843.663 479.454 850.813 479.454H856.941C861.026 479.454 865.452 479.454 870.899 479.113H888.262C896.433 479.113 899.837 479.454 902.561 480.134C905.285 480.815 905.965 481.837 905.965 482.858V485.582C905.965 491.029 906.306 496.136 906.306 500.902C906.306 512.477 905.625 522.35 905.625 535.968C904.944 563.545 905.285 579.205 904.944 607.122V622.442C904.944 654.785 906.306 676.914 906.306 709.598V725.258C906.306 728.322 903.582 729.003 900.518 729.003C880.772 729.003 861.026 729.344 843.323 729.344C841.28 729.344 839.237 729.003 836.854 728.322C835.492 727.982 835.152 723.215 835.152 721.854C835.152 710.959 834.131 702.789 834.131 690.192C833.45 620.74 833.109 581.588 832.769 512.137Z" fill="black"/>
<path d="M823.332 686.787V697.682C823.332 703.129 823.332 708.576 822.651 714.023C822.311 717.428 822.991 720.492 821.63 723.556C820.268 726.62 817.885 728.322 814.821 728.322C811.416 728.322 808.352 727.982 804.948 727.982C796.436 727.982 787.585 728.663 779.073 728.663H775.669C771.584 728.322 767.498 728.322 763.413 728.322C759.327 728.322 754.902 728.322 750.816 728.663C747.752 729.003 745.029 729.003 741.964 729.003L721.197 727.982C719.154 727.641 716.771 727.641 714.729 727.301C711.324 726.62 710.303 725.258 710.303 721.854C709.622 710.959 709.622 697.001 709.622 685.085C709.622 679.298 709.622 673.51 709.622 668.063C709.622 624.826 709.622 582.95 707.579 540.394C707.239 525.414 705.536 507.711 705.536 490.008C705.536 489.327 705.877 488.305 705.877 487.624C706.217 485.582 705.877 483.879 708.26 483.199C708.941 482.858 709.962 482.858 710.643 482.858H717.112C718.814 483.199 720.176 483.199 721.878 483.199C738.22 483.199 729.027 482.177 746.731 482.177C748.093 482.518 750.816 482.177 753.199 482.518C755.582 482.858 757.285 482.518 759.327 483.539C761.37 484.901 762.051 485.582 762.051 487.284C762.051 487.965 762.051 488.646 761.711 489.667C761.37 493.752 761.03 498.178 761.03 502.604C760.349 512.137 760.008 521.669 760.008 531.202C760.008 544.479 760.349 557.757 760.349 571.035C760.349 574.439 760.349 577.843 760.349 581.248C760.008 592.142 759.327 623.464 759.327 634.699C759.327 638.784 759.327 641.848 759.668 643.21C760.008 645.593 760.689 648.317 761.37 651.04C762.391 654.104 764.434 655.806 767.839 656.147C771.924 656.828 776.009 656.828 780.095 656.828H788.606C796.096 656.828 800.181 656.147 807.331 655.466C810.395 655.466 814.14 655.126 816.863 655.126C820.949 655.126 823.332 656.147 823.332 660.573C823.332 660.913 823.332 661.254 823.332 661.594C822.992 664.999 822.991 667.722 822.991 670.446C822.991 675.553 823.332 680.319 823.332 686.787Z" fill="black"/>
<path d="M686.881 582.61C683.817 586.355 681.093 590.1 677.689 593.504C665.773 608.824 641.601 608.144 617.77 610.867H613.344C613.003 612.229 612.663 613.25 612.663 613.931V614.272C611.982 638.103 611.641 651.721 611.301 675.553V679.978C611.301 687.809 611.641 697.001 611.641 705.172V722.194C611.641 722.875 611.982 725.599 611.982 725.939C611.982 729.003 608.918 729.344 605.854 729.344H579.98C575.213 729.344 569.085 729.003 564.319 729.003C562.617 729.003 560.914 728.663 559.212 728.663C558.531 728.663 557.85 728.322 557.51 727.982C555.467 726.96 554.105 725.939 554.105 723.556V722.875C554.105 719.811 554.446 716.406 554.446 713.002V709.257C554.786 699.724 554.786 689.511 554.786 679.978V679.638C554.786 674.191 554.446 668.744 554.446 663.296C554.446 660.232 554.446 656.828 554.786 653.764C555.127 647.295 555.127 640.827 555.467 634.358C555.808 629.251 556.148 624.145 556.148 618.697C556.148 611.548 555.808 604.739 555.808 597.59C555.808 591.461 555.808 585.333 555.467 579.546V577.163C555.467 573.758 555.808 570.013 555.808 566.609V558.097C555.808 538.692 555.467 520.988 555.467 501.583V491.029C555.467 485.582 555.808 479.113 558.531 479.113H560.574C568.404 478.773 579.639 478.773 587.81 478.432H589.512C595.981 478.432 601.428 477.751 607.556 477.751H623.217C628.664 477.751 633.771 477.751 639.218 478.092C648.41 478.432 657.262 479.794 665.773 483.879C668.496 485.241 671.901 486.263 674.625 487.624C679.391 489.667 683.476 492.731 686.54 496.817C687.562 497.838 688.583 499.2 689.604 500.221C697.435 508.392 700.499 521.329 700.499 534.947C700.499 537.67 700.499 540.394 700.158 543.118C698.797 558.778 693.69 574.439 686.881 582.61ZM641.261 543.118V541.075C641.261 536.309 638.877 532.904 634.792 529.84C631.728 527.797 628.323 527.117 624.579 527.117C618.791 527.117 613.344 527.117 607.556 527.457C606.194 527.457 605.173 528.138 604.832 529.5C603.13 535.968 603.811 544.139 603.471 550.608V554.012C603.471 556.055 603.471 558.438 603.811 560.821C605.513 561.161 606.875 561.161 608.237 561.161C612.663 560.481 616.748 560.14 621.174 559.459C624.238 558.778 627.643 558.097 630.366 556.736C636.494 554.352 640.58 550.267 641.261 543.118Z" fill="black"/>
<path d="M353.849 483.199C354.19 482.177 355.211 481.837 356.233 481.837H359.637C363.382 482.177 366.446 482.177 369.51 482.177H384.49C390.958 482.177 397.427 482.177 404.236 483.199C405.938 483.539 407.641 483.199 409.002 484.56C411.385 486.944 426.025 541.756 427.046 544.82C430.451 554.693 434.536 575.801 436.919 585.674C437.26 586.695 437.941 587.717 438.621 589.078C440.324 586.695 441.005 584.653 441.685 582.269C445.09 570.694 448.835 559.459 451.899 547.884C452.239 546.182 452.92 544.82 453.261 543.458C453.942 541.415 463.474 502.604 468.241 485.922C469.602 481.496 469.943 479.794 470.964 479.113C471.645 478.773 472.326 478.773 473.007 478.773C474.028 478.773 475.73 478.773 477.773 479.113C485.263 479.454 492.072 479.794 498.54 480.475C512.158 481.837 529.181 480.475 540.416 484.22C544.161 486.263 544.501 492.05 544.501 497.838C544.501 500.221 544.501 502.604 544.501 504.987C544.501 520.308 544.842 536.99 544.842 552.65C544.842 573.418 544.501 594.526 544.501 615.633V710.278C544.501 716.066 544.161 722.875 542.799 727.301C541.778 729.684 535.309 729.684 529.862 729.684H505.009C500.583 729.684 496.157 729.684 491.051 729.344C489.348 729.344 488.327 728.322 486.965 727.641C485.603 726.96 484.582 725.599 484.582 723.556C484.242 716.066 484.242 708.576 483.901 700.746V684.745C483.901 674.531 483.901 664.318 484.242 654.445C485.263 638.784 485.263 630.273 485.603 614.953C485.603 611.548 485.944 608.824 485.944 606.101C485.944 602.015 485.603 597.59 485.603 593.504C470.624 640.146 468.581 658.19 455.984 697.001C454.623 701.767 453.942 704.491 450.197 704.491H448.494C446.111 703.81 445.43 702.788 444.409 699.724C437.941 681.34 425.344 650.019 418.194 624.485C416.833 619.378 415.471 614.612 412.407 608.824C411.045 606.101 408.321 599.973 406.96 599.973C406.619 599.973 406.279 600.313 406.279 600.994C404.917 608.144 404.576 615.293 404.576 622.102C404.576 656.828 404.236 685.085 404.236 722.194C404.236 724.237 403.555 725.258 402.193 725.599C378.702 728.322 391.639 729.344 365.084 729.344C363.382 729.344 360.999 729.003 358.956 728.663C354.871 727.641 353.849 725.939 353.509 721.513C353.509 715.045 353.169 707.895 353.169 700.746V698.703C353.169 690.873 352.828 683.042 352.828 674.872V668.063C352.828 659.551 352.488 651.04 352.488 642.529C352.147 634.358 352.147 625.506 352.147 617.336C352.147 609.505 352.147 602.356 352.828 595.206C353.509 588.397 353.849 581.929 353.849 575.12C353.509 564.226 353.509 552.991 353.169 541.756C353.169 530.521 352.828 518.265 352.828 506.009C352.828 502.264 352.488 498.859 352.488 495.114C352.488 491.369 352.828 487.624 353.849 483.199Z" fill="black"/>
<path d="M315.341 421.237C312.277 426.343 310.235 428.046 307.511 431.11C305.128 433.833 303.085 436.557 301.383 439.621C299.34 443.706 296.617 447.111 293.552 450.515C291.51 452.558 290.148 455.622 288.446 457.665C287.084 459.367 286.403 462.091 284.02 463.452C281.296 464.814 281.637 464.474 276.19 464.133C272.785 463.793 269.721 463.793 267.338 463.793H247.932C245.89 464.133 244.868 462.772 245.209 461.069C245.549 459.027 246.23 456.984 246.911 454.941C251.337 444.387 255.763 433.493 260.188 422.939C260.869 421.237 261.55 419.875 262.572 418.173C264.614 415.109 265.976 414.768 269.381 415.449C274.828 416.47 280.956 416.47 286.743 416.811H292.191C295.936 416.811 299.681 417.151 303.426 417.151C304.787 417.151 308.192 417.492 309.554 417.492C312.618 417.151 316.703 418.854 315.341 421.237ZM324.874 707.895C311.937 723.556 291.169 732.748 264.274 732.748C261.21 733.089 258.146 733.089 255.422 733.089C251.337 732.748 247.251 732.748 243.166 732.748C194.141 732.748 179.161 697.341 175.076 651.04C174.395 645.933 174.055 640.486 174.055 635.379V625.506C174.055 592.142 178.14 561.161 184.949 534.606C186.992 526.436 190.737 518.265 194.822 510.775C207.078 488.986 222.739 478.432 254.741 476.049C258.486 475.709 262.231 475.368 265.976 475.368C293.893 475.368 320.108 487.284 328.959 505.328C335.768 520.308 339.854 533.585 341.556 553.672C341.556 555.714 341.896 557.757 341.896 559.8C342.918 574.439 343.258 591.121 343.258 607.463C343.258 609.165 343.258 610.867 343.258 612.569C343.258 651.04 342.918 686.787 324.874 707.895ZM280.275 586.014C279.935 576.482 276.53 544.139 267.338 534.947C265.636 533.245 263.593 532.223 260.869 532.223H260.529C255.082 532.904 248.954 537.67 245.209 549.927C243.847 554.693 242.825 559.8 242.485 564.906C241.123 572.396 241.804 580.908 240.783 588.738C240.442 596.909 240.102 594.526 240.102 599.973V603.718C240.102 607.463 240.442 610.527 240.442 614.272C240.783 625.847 240.783 626.187 242.145 637.082C242.825 645.593 248.954 672.148 259.508 672.148C276.19 672.148 277.892 649.338 278.573 634.018C279.594 622.102 280.275 623.123 280.275 608.824V586.014Z" fill="black"/>
<path d="M0.34045 577.163C0.680899 569.673 1.02135 561.502 1.3618 554.012C3.74494 512.818 25.8742 490.008 58.8978 478.773C62.3023 477.751 66.0472 476.73 69.4517 476.39C73.1966 475.709 76.6012 475.368 80.3461 475.368C91.5809 475.368 99.4113 475.368 111.667 477.07C131.073 479.794 139.925 479.454 157.288 496.816C161.714 501.242 163.756 505.328 165.118 510.434C166.48 514.86 167.501 518.946 168.523 523.372C169.203 528.478 169.544 534.266 169.544 540.054C169.544 554.693 169.203 562.523 167.501 575.46C166.82 579.546 166.48 583.631 165.799 587.717C165.118 590.781 163.756 592.823 160.692 593.845C157.969 594.526 154.905 594.526 152.181 594.526H121.881C120.519 594.526 117.115 595.206 113.71 595.206C107.923 595.206 101.794 594.185 101.794 588.738C101.454 584.652 101.454 580.908 101.454 577.163C101.454 565.247 102.135 559.119 102.135 547.543C102.135 541.415 101.454 535.968 99.0708 530.861C98.7304 530.181 98.3899 529.5 97.709 528.819C95.3259 526.095 90.5596 525.074 86.1337 525.074C84.4315 525.074 82.7292 525.414 81.027 526.436C74.218 530.521 71.154 534.606 67.7495 541.415C64.6854 547.884 63.3236 554.693 62.9832 561.502C62.3023 571.034 61.6214 578.524 60.9405 589.419V593.504C61.2809 599.973 61.6214 604.399 61.6214 609.846V624.826C61.6214 631.975 61.6214 639.124 62.3023 642.188C63.3236 646.955 63.3236 652.742 67.0686 658.53C70.1326 662.956 74.218 665.339 77.9629 665.339H78.6438C82.3888 665.339 86.1337 663.637 89.1978 660.573C91.2405 658.53 91.9214 655.806 92.2618 653.083C92.6023 649.678 93.2832 636.06 93.6236 633.337C93.9641 630.613 94.3045 621.761 95.6663 619.378C96.3472 618.017 98.0495 617.676 99.4113 617.676H100.433C106.22 618.017 109.625 618.357 115.412 618.697C123.243 619.378 127.328 620.059 135.158 620.059H136.861C142.989 620.059 147.074 619.378 152.862 619.378H155.585C158.649 619.378 160.692 620.4 163.075 621.081C165.118 621.761 166.139 623.464 166.139 625.847C166.48 627.209 166.48 628.57 166.48 629.932C166.139 642.188 166.139 658.53 165.118 670.786C163.416 689.171 157.288 701.767 149.457 714.023C146.393 718.449 142.989 722.535 137.882 724.918C133.456 726.62 129.371 728.663 124.945 730.024C123.924 730.365 123.243 730.705 122.562 730.705C114.731 732.067 106.901 733.429 99.4113 734.45C93.6236 735.131 88.1764 735.812 82.3888 735.812C76.6012 735.812 70.8135 735.131 65.3663 734.11C60.6 733.088 55.8337 732.408 51.0674 731.386C38.8112 727.982 28.5978 721.513 21.1079 710.278C18.3843 706.193 15.3202 701.427 13.618 696.66C12.2562 693.256 11.2348 690.192 10.2135 686.787C7.83034 678.617 5.44719 670.105 4.76629 661.254C4.08539 653.764 3.06405 646.274 2.0427 638.784C1.70225 637.422 1.70225 635.72 1.70225 634.358C1.02135 623.804 0.680899 613.25 0 602.696V598.611C0 591.802 0.34045 584.312 0.34045 577.163Z" fill="black"/>
<path fill-rule="evenodd" clip-rule="evenodd" d="M789.224 9.04293C810.553 7.65097 819.241 9.58384 838.687 12.3447C878.497 17.144 912.059 28.7954 943.223 54.0058C993.661 94.8093 997.619 139.498 1003.24 199.458C1008.28 253.185 988.013 286.098 951.359 324.253C934.968 341.314 920.891 345.981 899.096 352.546C884.069 357.22 868.637 360.478 853 362.278C845.46 362.645 835.316 363.797 827.857 363.669C812.258 363.401 788.889 361.684 773.919 357.952C761.85 354.944 743.565 347.104 732.159 341.984C721.401 337.154 708.592 330.101 699.251 322.866C695.015 319.586 685.025 306.877 681.725 302.249C657.719 268.453 642.885 229.01 638.671 187.769C636.803 168.432 638.471 154.873 644.15 136.6C645.657 131.754 646.327 125.33 647.777 120.044C654.166 96.7602 666.87 75.1519 681.322 55.9912C685.88 50.0271 694.068 41.513 699.236 35.6464C702.848 32.1839 711.002 30.3004 714.802 27.8115C732.086 16.4952 747.955 11.9277 768.491 11.249C774.307 11.0569 782.827 9.64958 789.224 9.04293ZM904.466 192.065C895.595 192.388 890.053 193.481 881.576 194.333C859.488 196.477 835.6 202.368 819.506 218.631C814.89 223.292 810.654 232.259 811 238.917C811.543 249.353 819.943 254.345 828.184 258.581C846.828 268.166 868.907 267.364 889.323 267.477C902.703 267.914 910.623 267.625 923.883 265.499C937.565 263.305 943.675 260.114 954.966 251.872C966.727 243.287 993.786 227.35 976.64 211.032C958.981 194.231 927.533 192.624 904.466 192.065Z" fill="black"/>
<path d="M959.167 215.931C962.495 216.16 969.93 215.977 971.966 217.965C972.029 218.738 972.043 219.086 971.861 219.85C968.398 234.272 945.537 229.523 935.845 227.007C932.478 225.818 931.134 224.84 928.497 222.486C933.521 218.884 936.028 217.876 941.868 216.681C943.76 220.149 946.411 224.915 950.724 225.646C952.232 225.913 953.783 225.553 955.022 224.649C957.674 222.707 958.648 218.972 959.167 215.931Z" fill="black"/>
<path d="M865.981 222.925C868.508 223.918 870.818 224.956 873.286 226.07C869.963 230.592 867.595 232.383 863.047 235.336C857.754 237.974 833.818 238.07 830.581 233.804C830.038 227.844 844.581 223.942 849.321 223.304C850.454 224.786 851.636 238.026 860.761 232.546C864.445 230.331 865.189 226.885 865.981 222.925Z" fill="black"/>
<path d="M912.274 218.964C912.514 219.077 912.98 219.244 913.033 219.55C914.887 230.403 924.31 255.872 915.113 264.157C913.321 260.469 912.058 255.971 911.309 251.931C909.594 242.723 902.909 225.543 912.274 218.964Z" fill="black"/>
<path fill-rule="evenodd" clip-rule="evenodd" d="M583.566 0.438706C616.815 -1.74286 640.906 4.10654 669.962 20.3498C678.478 25.1111 688.079 30.5723 695.682 36.6506C691.235 41.3664 685.409 46.9371 680.706 51.55C668.835 63.1895 657.206 74.3954 649.172 89.2141C647.017 93.189 644.363 96.9724 642.911 101.345C640.28 109.767 638.106 121.076 636.658 129.835C634.068 145.504 632.458 163.624 631.455 179.431C630.652 197.769 636.853 215.865 641.929 233.173C647.43 251.93 651.083 272.383 663.194 288.254C668.915 295.753 675.891 302.921 682.667 309.48C686.495 313.188 690.808 315.89 694.587 319.949C687.402 325.155 677.693 332.85 670.091 336.905C638.762 353.613 600.161 366.492 564.513 366.148C553.166 365.49 541.479 364.566 530.598 361.079C517.831 356.988 501.834 346.825 489.985 339.965C476.834 332.352 463.439 325.659 451.735 315.736C438.93 304.88 404.377 259.313 398.042 244.34C394.293 235.478 391.343 218.963 390.551 209.324C389.914 201.583 390.177 193.865 390.147 186.113C390.12 179.509 389.646 172.564 390.557 166.012C391.633 158.268 395.249 150.822 397.796 143.487C401.688 132.277 403.792 121.392 410.262 111.163C414.017 105.228 418.555 100.493 423.029 95.1535C427.812 89.4431 432.399 83.5676 437.223 77.8899C449.132 63.8713 463.945 52.4908 478.946 41.9993C514.801 16.9214 538.958 4.06174 583.566 0.438706ZM531.582 203.622C525.722 203.102 519.655 203.116 513.79 203.539C513.69 203.547 513.59 203.562 513.49 203.573C495.666 204.645 414.827 212.951 450.198 252.957C452.22 255.243 458.139 257.409 460.816 258.919C482.544 269.306 519.844 276.158 544.033 275.919C566.869 275.618 593.162 268.556 609.574 251.68C613.165 247.987 615.205 243.747 615.091 238.533C614.959 232.517 612.131 225.663 607.666 221.572C598.749 213.398 545.809 204.886 531.582 203.622Z" fill="black"/>
<path d="M484.329 225.358C490.714 226.441 493.69 227.166 498.98 230.886C489.8 239.711 473.391 242.082 461.488 238.678C458.383 237.26 454.167 234.633 455.465 230.531C457.394 228.114 463.775 227.9 467.467 227.245C469.084 230.548 470.806 234.342 474.332 235.772C475.757 236.346 477.365 236.249 478.712 235.508C482.25 233.595 483.381 228.905 484.329 225.358Z" fill="black"/>
<path d="M577.712 222.546C582.681 222.694 596.025 224.637 597.281 230.073C597.032 230.94 596.867 231.894 595.914 232.333C589.78 235.161 572.841 237.857 566.792 236.589C561.295 234.358 558.761 232.875 554.891 228.427C556.511 226.696 558.634 224.255 561.103 224.221C561.646 225.735 562.74 229.485 563.73 230.499C567.086 233.937 571.496 234.291 574.949 230.677C577.732 227.764 577.648 226.422 577.712 222.546Z" fill="black"/>
<path d="M513.414 225.435C514.035 225.423 516.735 225.353 517.077 225.54C520.473 227.405 520.672 236.114 520.721 239.507C520.862 249.322 518.198 259.104 515.7 268.481C515.631 268.666 515.199 269.261 515.069 269.452C506.507 264.285 513.127 234.465 513.414 225.435Z" fill="black"/>
</svg>
