<svg width="631" height="145" viewBox="0 0 631 145" fill="none" xmlns="http://www.w3.org/2000/svg">
<path d="M604.5 64.1763C599.727 64.7921 598.957 64.0224 595.724 66.9474C594.493 68.0251 593.877 69.2567 593.877 70.7962C593.877 71.258 593.877 71.7199 594.031 72.1817C594.493 74.337 595.263 76.1844 597.264 77.57C599.881 79.2634 602.498 80.8029 605.269 82.3424C610.042 84.9596 614.814 87.7307 619.125 91.2715C622.82 94.0426 626.36 98.3532 628.516 103.434C629.901 106.666 630.671 110.207 630.671 114.056C630.671 115.134 630.671 116.057 630.517 117.135C629.593 126.526 624.359 134.993 616.816 138.534C613.583 139.92 610.812 140.228 606.809 140.997C601.882 141.921 596.648 142.229 591.106 142.229C585.872 142.229 580.637 142.075 575.865 141.921C571.554 141.767 565.242 141.613 561.24 140.382C559.546 139.92 558.161 139.612 556.929 138.688C556.313 138.226 556.005 137.456 556.005 136.841C555.851 136.225 555.851 135.609 555.851 134.993C555.851 132.068 555.698 129.143 555.698 126.218V117.443C555.698 116.057 555.544 114.826 555.544 113.44C555.544 111.285 555.39 109.899 555.39 108.822C555.39 106.974 555.851 106.82 558.469 106.359C559.084 106.205 560.932 106.205 561.548 106.205C566.474 106.205 571.246 106.359 576.327 106.359H579.868C581.561 106.359 584.178 105.897 584.178 105.897C584.64 105.743 585.102 105.589 585.564 105.281C587.411 104.203 589.105 102.972 590.644 101.432C591.876 100.201 592.492 98.6611 592.492 97.1216C592.492 94.3505 590.028 91.8873 587.103 89.732C583.562 87.2688 579.406 85.4214 576.943 84.4977C574.787 83.728 572.478 83.1122 570.323 82.0345C566.936 80.3411 563.703 78.0318 561.24 74.9528C559.546 72.9515 558.007 70.6422 557.237 68.179C556.467 66.0237 556.159 64.0224 555.544 61.4052C555.39 60.4815 555.39 59.7118 555.39 58.9421C555.39 57.8644 555.39 56.7868 555.698 55.5551C556.005 54.1696 556.313 53.2459 556.621 51.8604C556.775 51.3985 556.775 51.2446 556.929 50.7827C561.086 42.4694 566.32 37.0812 574.633 32.9245C575.249 32.6166 575.711 32.4627 576.327 32.1548C582.947 29.8455 591.106 29.2297 599.573 29.2297H608.04C613.429 29.2297 620.202 29.3837 625.129 30.1534C626.053 30.3074 628.054 30.3074 628.67 31.2311C629.747 32.3087 630.055 33.2324 630.363 34.7719C630.517 35.6956 630.363 36.6193 630.517 37.697V44.1629C630.517 46.3182 630.671 48.6274 630.671 50.7827C630.671 59.096 630.517 52.7841 630.517 61.0973C630.517 61.5592 630.517 62.175 630.363 62.6368C630.209 63.7145 629.132 63.8684 627.9 63.8684H624.821C623.589 63.8684 621.126 64.0224 618.509 64.0224H616.2C614.506 63.8684 612.505 63.8684 610.504 63.8684C608.348 63.8684 606.347 63.8684 604.5 64.1763Z" fill="black"/>
<path d="M532.821 141.767C531.282 141.767 529.896 141.767 528.049 141.921H526.047C523.122 141.921 520.967 141.613 518.042 141.613H516.656C513.885 141.767 508.497 141.921 506.188 141.921C504.34 141.921 502.493 141.767 500.646 141.459C498.798 141.151 497.105 140.689 495.257 140.228C494.026 139.92 493.41 138.996 493.256 137.764C493.102 137.302 493.102 136.995 493.102 136.533C493.102 133.762 492.948 130.991 492.948 128.373V109.13C492.948 103.895 492.948 98.6611 492.794 93.4268C492.486 87.2688 492.486 81.4187 492.486 75.7226C492.486 67.1014 492.64 58.7881 492.64 49.7051C492.64 43.701 492.794 37.0812 492.794 30.9232C492.948 29.6916 493.564 29.0758 494.796 29.0758C498.798 29.0758 504.033 29.8456 507.573 29.8456C513.116 29.9995 518.812 29.9995 524.354 29.9995C531.282 29.9995 538.825 29.8456 545.445 29.5377H546.985C548.524 29.5377 549.756 29.6916 550.833 30.7693C551.295 31.0772 551.295 32.9245 551.295 33.5403V35.0798C551.295 38.1588 551.449 40.776 551.449 43.2392C551.449 45.3945 551.449 47.5498 551.141 50.3209V56.171C551.295 57.7105 551.295 59.25 551.295 60.9434C551.295 62.4829 549.294 62.7908 547.6 62.7908C546.523 62.7908 545.445 62.6369 544.521 62.6369C539.441 62.6369 532.359 61.8671 526.355 61.8671H521.737C521.121 62.0211 520.659 62.329 520.505 62.9448C520.505 63.0987 520.505 63.2527 520.351 63.4066V66.7935C520.351 68.1791 520.351 68.9488 520.351 69.4106C520.351 70.0264 520.351 70.4883 520.505 71.1041C520.813 71.1041 525.739 70.7962 528.203 70.7962H537.132C538.517 70.7962 539.903 70.7962 541.75 70.9501C542.828 70.9501 543.598 70.9501 544.675 71.1041C545.445 71.1041 547.446 71.1041 548.062 71.412C549.602 71.8738 550.218 75.2607 550.218 77.1081V79.4174C550.218 84.6517 550.064 82.3424 550.064 88.1925V88.5004C550.064 89.1162 550.064 89.2702 549.602 89.732C549.448 89.886 548.524 90.0399 548.216 90.0399C540.673 90.3478 533.283 90.5018 525.278 90.5018C523.892 90.5018 522.66 90.8097 521.429 91.1176C520.505 91.2715 520.197 91.7334 520.197 92.6571C520.043 95.7361 519.889 98.815 519.889 101.894C519.889 102.818 520.197 103.126 521.121 103.126C523.892 103.28 526.663 103.434 529.434 103.434H531.436C536.978 103.434 541.596 104.203 547.138 104.665C547.908 104.819 548.832 104.665 549.602 104.819C551.141 105.127 551.603 106.051 551.603 107.59C551.603 109.592 551.757 111.593 551.757 113.594V123.293C551.911 127.296 552.065 132.838 552.219 136.841V138.534C552.219 140.228 552.065 140.381 550.833 140.843C550.371 140.997 550.064 141.151 549.602 141.151C544.675 141.613 538.671 141.767 532.821 141.767Z" fill="black"/>
<path d="M413.009 73.2594C413.163 69.8725 413.317 66.1777 413.471 62.7908C414.549 44.1629 424.556 33.8482 439.489 28.7679C441.028 28.306 442.722 27.8442 444.261 27.6902C445.955 27.3823 447.494 27.2284 449.188 27.2284C454.268 27.2284 457.809 27.2284 463.351 27.9981C472.126 29.2297 476.129 29.0758 483.98 36.9272C485.982 38.9286 486.905 40.776 487.521 43.0852C488.137 45.0866 488.599 46.934 489.061 48.9353C489.369 51.2446 489.522 53.8617 489.522 56.4789C489.522 63.0987 489.369 66.6395 488.599 72.4896C488.291 74.337 488.137 76.1844 487.829 78.0318C487.521 79.4174 486.905 80.3411 485.52 80.8029C484.288 81.1108 482.903 81.1108 481.671 81.1108H467.969C467.354 81.1108 465.814 81.4187 464.275 81.4187C461.658 81.4187 458.886 80.9569 458.886 78.4937C458.733 76.6463 458.733 74.9528 458.733 73.2594C458.733 67.8711 459.04 65.1 459.04 59.8657C459.04 57.0947 458.732 54.6315 457.655 52.3222C457.501 52.0143 457.347 51.7064 457.039 51.3985C455.961 50.1669 453.806 49.7051 451.805 49.7051C451.035 49.7051 450.265 49.859 449.496 50.3209C446.417 52.1683 445.031 54.0157 443.491 57.0947C442.106 60.0197 441.49 63.0987 441.336 66.1777C441.028 70.4883 440.72 73.8752 440.413 78.8016V80.649C440.566 83.574 440.72 85.5754 440.72 88.0386V94.8124C440.72 98.0453 440.72 101.278 441.028 102.664C441.49 104.819 441.49 107.436 443.184 110.053C444.569 112.055 446.417 113.132 448.11 113.132H448.418C450.111 113.132 451.805 112.363 453.19 110.977C454.114 110.053 454.422 108.822 454.576 107.59C454.73 106.051 455.038 99.8927 455.192 98.6611C455.346 97.4295 455.5 93.4268 456.115 92.3492C456.423 91.7334 457.193 91.5794 457.809 91.5794H458.271C460.888 91.7334 462.427 91.8873 465.044 92.0413C468.585 92.3492 470.433 92.6571 473.974 92.6571H474.743C477.514 92.6571 479.362 92.3492 481.979 92.3492H483.211C484.596 92.3492 485.52 92.811 486.597 93.1189C487.521 93.4268 487.983 94.1966 487.983 95.2742C488.137 95.89 488.137 96.5058 488.137 97.1216C487.983 102.664 487.983 110.053 487.521 115.596C486.751 123.909 483.98 129.605 480.439 135.147C479.054 137.149 477.514 138.996 475.205 140.074C473.204 140.843 471.356 141.767 469.355 142.383C468.893 142.537 468.585 142.691 468.277 142.691C464.737 143.307 461.196 143.922 457.809 144.384C455.192 144.692 452.728 145 450.111 145C447.494 145 444.877 144.692 442.414 144.23C440.259 143.768 438.103 143.46 435.948 142.999C430.406 141.459 425.787 138.534 422.4 133.454C421.169 131.606 419.783 129.451 419.013 127.296C418.398 125.756 417.936 124.371 417.474 122.831C416.396 119.136 415.319 115.288 415.011 111.285C414.703 107.898 414.241 104.511 413.779 101.124C413.625 100.508 413.625 99.7387 413.625 99.1229C413.317 94.3505 413.163 89.5781 412.855 84.8056V82.9582C412.855 79.8792 413.009 76.4923 413.009 73.2594Z" fill="black"/>
<path d="M376.574 43.855C376.574 43.701 376.574 43.3932 376.574 43.2392C376.574 39.5444 376.728 36.7733 376.728 33.5404C376.728 30.9232 376.882 30.4614 377.652 29.9995C378.883 29.0758 381.501 29.0758 384.734 29.0758H387.505C389.352 29.0758 391.353 29.0758 393.817 28.9219H401.668C405.363 28.9219 406.902 29.0758 408.134 29.3837C409.366 29.6916 409.673 30.1535 409.673 30.6153V31.8469C409.673 34.3101 409.827 36.6194 409.827 38.7747C409.827 44.009 409.519 48.4735 409.519 54.6315C409.212 67.1014 409.366 74.1831 409.212 86.807V93.7347C409.212 108.36 409.827 118.367 409.827 133.146V140.228C409.827 141.613 408.596 141.921 407.21 141.921C398.281 141.921 389.352 142.075 381.347 142.075C380.423 142.075 379.499 141.921 378.422 141.613C377.806 141.459 377.652 139.304 377.652 138.688C377.652 133.762 377.19 130.067 377.19 124.371C376.882 92.965 376.728 75.2608 376.574 43.855Z" fill="black"/>
<path d="M372.307 122.831V127.758C372.307 130.221 372.307 132.684 371.999 135.147C371.845 136.687 372.153 138.072 371.537 139.458C370.921 140.843 369.843 141.613 368.458 141.613C366.918 141.613 365.533 141.459 363.993 141.459C360.145 141.459 356.142 141.767 352.293 141.767H350.754C348.906 141.613 347.059 141.613 345.212 141.613C343.364 141.613 341.363 141.613 339.515 141.767C338.13 141.921 336.898 141.921 335.513 141.921L326.122 141.459C325.198 141.305 324.12 141.305 323.197 141.151C321.657 140.843 321.195 140.228 321.195 138.688C320.887 133.762 320.887 127.45 320.887 122.061C320.887 119.444 320.887 116.827 320.887 114.364C320.887 94.8123 320.887 75.8765 319.964 56.6328C319.81 49.859 319.04 41.8536 319.04 33.8482C319.04 33.5403 319.194 33.0785 319.194 32.7706C319.348 31.8469 319.194 31.0771 320.272 30.7692C320.58 30.6153 321.041 30.6153 321.349 30.6153H324.274C325.044 30.7692 325.66 30.7692 326.43 30.7692C333.819 30.7692 329.663 30.3074 337.668 30.3074C338.284 30.4613 339.515 30.3074 340.593 30.4613C341.671 30.6153 342.44 30.4613 343.364 30.9232C344.288 31.539 344.596 31.8469 344.596 32.6166C344.596 32.9245 344.596 33.2324 344.442 33.6943C344.288 35.5417 344.134 37.543 344.134 39.5444C343.826 43.855 343.672 48.1656 343.672 52.4761C343.672 58.4802 343.826 64.4842 343.826 70.4883C343.826 72.0278 343.826 73.5673 343.826 75.1068C343.672 80.0332 343.364 94.1965 343.364 99.2769C343.364 101.124 343.364 102.51 343.518 103.126C343.672 104.203 343.98 105.435 344.288 106.666C344.75 108.052 345.673 108.822 347.213 108.976C349.06 109.284 350.908 109.284 352.755 109.284H356.604C359.991 109.284 361.838 108.976 365.071 108.668C366.457 108.668 368.15 108.514 369.382 108.514C371.229 108.514 372.307 108.976 372.307 110.977C372.307 111.131 372.307 111.285 372.307 111.439C372.153 112.978 372.153 114.21 372.153 115.442C372.153 117.751 372.307 119.906 372.307 122.831Z" fill="black"/>
<path d="M310.605 75.7226C309.219 77.416 307.988 79.1095 306.448 80.649C301.06 87.5767 290.13 87.2688 279.353 88.5004H277.352C277.198 89.1162 277.044 89.5781 277.044 89.886V90.0399C276.736 100.816 276.582 106.974 276.428 117.751V119.752C276.428 123.293 276.582 127.45 276.582 131.145V138.842C276.582 139.15 276.736 140.381 276.736 140.535C276.736 141.921 275.35 142.075 273.965 142.075H262.265C260.109 142.075 257.338 141.921 255.183 141.921C254.413 141.921 253.643 141.767 252.874 141.767C252.566 141.767 252.258 141.613 252.104 141.459C251.18 140.997 250.564 140.535 250.564 139.458V139.15C250.564 137.764 250.718 136.225 250.718 134.685V132.992C250.872 128.681 250.872 124.063 250.872 119.752V119.598C250.872 117.135 250.718 114.672 250.718 112.209C250.718 110.823 250.718 109.284 250.872 107.898C251.026 104.973 251.026 102.048 251.18 99.1229C251.334 96.8137 251.488 94.5044 251.488 92.0412C251.488 88.8083 251.334 85.7293 251.334 82.4964C251.334 79.7253 251.334 76.9542 251.18 74.337V73.2594C251.18 71.7199 251.334 70.0264 251.334 68.4869V64.6382C251.334 55.8631 251.18 47.8576 251.18 39.0825V34.3101C251.18 31.8469 251.334 28.9218 252.566 28.9218H253.489C257.03 28.7679 262.111 28.7679 265.805 28.6139H266.575C269.5 28.6139 271.963 28.306 274.735 28.306H281.816C284.279 28.306 286.589 28.306 289.052 28.46C293.209 28.6139 297.211 29.2297 301.06 31.0771C302.292 31.6929 303.831 32.1548 305.063 32.7706C307.218 33.6943 309.065 35.0798 310.451 36.9272C310.913 37.3891 311.375 38.0049 311.836 38.4667C315.377 42.1615 316.763 48.0116 316.763 54.1696C316.763 55.4012 316.763 56.6328 316.609 57.8644C315.993 64.9461 313.684 72.0278 310.605 75.7226ZM289.976 57.8644V56.9407C289.976 54.7854 288.898 53.2459 287.051 51.8603C285.665 50.9367 284.125 50.6288 282.432 50.6288C279.815 50.6288 277.352 50.6287 274.735 50.7827C274.119 50.7827 273.657 51.0906 273.503 51.7064C272.733 54.6314 273.041 58.3262 272.887 61.2513V62.7908C272.887 63.7145 272.887 64.7921 273.041 65.8698C273.811 66.0237 274.427 66.0237 275.042 66.0237C277.044 65.7158 278.891 65.5619 280.893 65.254C282.278 64.9461 283.818 64.6382 285.049 64.0224C287.82 62.9447 289.668 61.0973 289.976 57.8644Z" fill="black"/>
<path d="M160.009 30.7692C160.163 30.3074 160.625 30.1534 161.087 30.1534H162.626C164.32 30.3074 165.705 30.3074 167.091 30.3074H173.864C176.79 30.3074 179.715 30.3074 182.794 30.7692C183.563 30.9232 184.333 30.7692 184.949 31.385C186.027 32.4627 192.646 57.2486 193.108 58.6341C194.648 63.0987 196.495 72.6436 197.573 77.1081C197.727 77.57 198.035 78.0318 198.343 78.6476C199.112 77.57 199.42 76.6463 199.728 75.5686C201.268 70.3343 202.961 65.254 204.347 60.0197C204.5 59.2499 204.808 58.6341 204.962 58.0184C205.27 57.0946 209.581 39.5444 211.736 32.0008C212.352 29.9995 212.506 29.2297 212.968 28.9218C213.276 28.7679 213.584 28.7679 213.891 28.7679C214.353 28.7679 215.123 28.7679 216.047 28.9218C219.434 29.0758 222.513 29.2297 225.438 29.5376C231.596 30.1534 239.293 29.5376 244.373 31.2311C246.067 32.1548 246.221 34.7719 246.221 37.3891C246.221 38.4667 246.221 39.5444 246.221 40.622C246.221 47.5498 246.375 55.0933 246.375 62.175C246.375 71.5659 246.221 81.1108 246.221 90.6557V133.454C246.221 136.071 246.067 139.15 245.451 141.151C244.989 142.229 242.064 142.229 239.601 142.229H228.363C226.361 142.229 224.36 142.229 222.051 142.075C221.281 142.075 220.819 141.613 220.203 141.305C219.588 140.997 219.126 140.381 219.126 139.458C218.972 136.071 218.972 132.684 218.818 129.143V121.908C218.818 117.289 218.818 112.671 218.972 108.206C219.434 101.124 219.434 97.2755 219.588 90.3478C219.588 88.8083 219.742 87.5767 219.742 86.3451C219.742 84.4977 219.588 82.4964 219.588 80.649C212.814 101.74 211.89 109.899 206.194 127.45C205.578 129.605 205.27 130.837 203.577 130.837H202.807C201.729 130.529 201.421 130.067 200.96 128.681C198.035 120.368 192.338 106.205 189.106 94.6584C188.49 92.3492 187.874 90.1939 186.488 87.5767C185.873 86.3451 184.641 83.574 184.025 83.574C183.871 83.574 183.717 83.728 183.717 84.0359C183.101 87.2688 182.948 90.5018 182.948 93.5807C182.948 109.284 182.794 122.061 182.794 138.842C182.794 139.766 182.486 140.228 181.87 140.381C171.247 141.613 177.097 142.075 165.089 142.075C164.32 142.075 163.242 141.921 162.318 141.767C160.471 141.305 160.009 140.535 159.855 138.534C159.855 135.609 159.701 132.376 159.701 129.143V128.219C159.701 124.679 159.547 121.138 159.547 117.443V114.364C159.547 110.515 159.393 106.666 159.393 102.818C159.239 99.1229 159.239 95.1203 159.239 91.4255C159.239 87.8846 159.239 84.6517 159.547 81.4187C159.855 78.3397 160.009 75.4147 160.009 72.3357C159.855 67.4093 159.855 62.3289 159.701 57.2486C159.701 52.1682 159.547 46.6261 159.547 41.0839C159.547 39.3904 159.393 37.8509 159.393 36.1575C159.393 34.464 159.547 32.7706 160.009 30.7692Z" fill="black"/>
<path d="M142.596 2.75039C141.211 5.05964 140.287 5.82939 139.055 7.21494C137.978 8.44654 137.054 9.67814 136.284 11.0637C135.361 12.9111 134.129 14.4506 132.743 15.9901C131.82 16.9138 131.204 18.2993 130.434 19.223C129.818 19.9928 129.51 21.2244 128.433 21.8402C127.201 22.456 127.355 22.302 124.892 22.1481C123.352 21.9941 121.967 21.9941 120.889 21.9941H112.114C111.19 22.1481 110.729 21.5323 110.883 20.7625C111.036 19.8388 111.344 18.9151 111.652 17.9914C113.654 13.219 115.655 8.29259 117.656 3.52014C117.964 2.75039 118.272 2.13459 118.734 1.36485C119.658 -0.0207022 120.273 -0.17465 121.813 0.133246C124.276 0.595098 127.047 0.595098 129.664 0.749046H132.128C133.821 0.749046 135.515 0.902994 137.208 0.902994C137.824 0.902994 139.363 1.05694 139.979 1.05694C141.365 0.902994 143.212 1.67274 142.596 2.75039ZM146.907 132.376C141.057 139.458 131.666 143.614 119.504 143.614C118.118 143.768 116.733 143.768 115.501 143.768C113.654 143.614 111.806 143.614 109.959 143.614C87.7901 143.614 81.0163 127.604 79.1689 106.667C78.861 104.357 78.707 101.894 78.707 99.5848V95.1203C78.707 80.0332 80.5544 66.0238 83.6334 54.0157C84.5571 50.3209 86.2506 46.6261 88.098 43.2392C93.6402 33.3864 100.722 28.614 115.193 27.5363C116.887 27.3824 118.58 27.2284 120.273 27.2284C132.897 27.2284 144.751 32.6167 148.754 40.776C151.833 47.5498 153.681 53.5538 154.45 62.6369C154.45 63.5606 154.604 64.4843 154.604 65.408C155.066 72.0278 155.22 79.5713 155.22 86.9609C155.22 87.7307 155.22 88.5004 155.22 89.2702C155.22 106.667 155.066 122.831 146.907 132.376ZM126.739 77.2621C126.585 72.9515 125.046 58.3263 120.889 54.1696C120.12 53.3999 119.196 52.938 117.964 52.938H117.81C115.347 53.2459 112.576 55.4012 110.883 60.9434C110.267 63.0987 109.805 65.408 109.651 67.7172C109.035 71.1041 109.343 74.9528 108.881 78.4937C108.727 82.1885 108.573 81.1108 108.573 83.574V85.2675C108.573 86.9609 108.727 88.3465 108.727 90.0399C108.881 95.2742 108.881 95.4282 109.497 100.355C109.805 104.203 112.576 116.211 117.348 116.211C124.892 116.211 125.662 105.897 125.97 98.969C126.431 93.5808 126.739 94.0426 126.739 87.5767V77.2621Z" fill="black"/>
<path d="M0.15395 73.2594C0.3079 69.8725 0.461849 66.1777 0.615799 62.7908C1.69345 44.1629 11.7002 33.8482 26.6333 28.7679C28.1728 28.306 29.8663 27.8442 31.4058 27.6902C33.0992 27.3823 34.6387 27.2284 36.3321 27.2284C41.4125 27.2284 44.9533 27.2284 50.4955 27.9981C59.2707 29.2297 63.2734 29.0758 71.1248 36.9272C73.1262 38.9286 74.0499 40.776 74.6656 43.0852C75.2814 45.0866 75.7433 46.934 76.2051 48.9353C76.5131 51.2446 76.667 53.8617 76.667 56.4789C76.667 63.0987 76.513 66.6395 75.7433 72.4896C75.4354 74.337 75.2814 76.1844 74.9735 78.0318C74.6656 79.4174 74.0498 80.3411 72.6643 80.8029C71.4327 81.1108 70.0472 81.1108 68.8156 81.1108H55.114C54.4982 81.1108 52.9587 81.4187 51.4192 81.4187C48.8021 81.4187 46.031 80.9569 46.031 78.4937C45.877 76.6463 45.877 74.9528 45.877 73.2594C45.877 67.8711 46.1849 65.1 46.1849 59.8657C46.1849 57.0947 45.877 54.6315 44.7994 52.3222C44.6454 52.0143 44.4915 51.7064 44.1836 51.3985C43.1059 50.1669 40.9506 49.7051 38.9493 49.7051C38.1795 49.7051 37.4098 49.859 36.64 50.3209C33.5611 52.1683 32.1755 54.0157 30.636 57.0947C29.2505 60.0197 28.6347 63.0987 28.4807 66.1777C28.1728 70.4883 27.8649 73.8752 27.557 78.8016V80.649C27.711 83.574 27.8649 85.5754 27.8649 88.0386V94.8124C27.8649 98.0453 27.8649 101.278 28.1728 102.664C28.6347 104.819 28.6347 107.436 30.3281 110.053C31.7137 112.055 33.5611 113.132 35.2545 113.132H35.5624C37.2559 113.132 38.9493 112.363 40.3348 110.977C41.2585 110.053 41.5664 108.822 41.7204 107.59C41.8743 106.051 42.1822 99.8927 42.3362 98.6611C42.4901 97.4295 42.6441 93.4268 43.2599 92.3492C43.5678 91.7334 44.3375 91.5794 44.9533 91.5794H45.4152C48.0323 91.7334 49.5718 91.8873 52.189 92.0413C55.7298 92.3492 57.5772 92.6571 61.1181 92.6571H61.8878C64.6589 92.6571 66.5063 92.3492 69.1235 92.3492H70.355C71.7406 92.3492 72.6643 92.811 73.742 93.1189C74.6656 93.4268 75.1275 94.1966 75.1275 95.2742C75.2814 95.89 75.2814 96.5058 75.2814 97.1216C75.1275 102.664 75.1275 110.053 74.6656 115.596C73.8959 123.909 71.1248 129.605 67.584 135.147C66.1984 137.149 64.6589 138.996 62.3497 140.074C60.3483 140.843 58.5009 141.767 56.4996 142.383C56.0377 142.537 55.7298 142.691 55.4219 142.691C51.8811 143.307 48.3402 143.922 44.9533 144.384C42.3362 144.692 39.873 145 37.2559 145C34.6387 145 32.0216 144.692 29.5584 144.23C27.4031 143.768 25.2478 143.46 23.0925 142.999C17.5503 141.459 12.9318 138.534 9.54489 133.454C8.31329 131.606 6.92774 129.451 6.15799 127.296C5.54219 125.756 5.08034 124.371 4.61849 122.831C3.54085 119.136 2.4632 115.288 2.1553 111.285C1.8474 107.898 1.38555 104.511 0.923698 101.124C0.769749 100.508 0.769749 99.7387 0.769749 99.1229C0.46185 94.3505 0.3079 89.5781 0 84.8056V82.9582C0 79.8792 0.15395 76.4923 0.15395 73.2594Z" fill="black"/>
</svg>
